# This file uses centimeters as units for non-parametric coordinates.

mtllib realcube.mtl
g default
v -0.500000 -0.501324 -0.498672
v 0.500000 -0.501324 -0.498672
v -0.500000 -0.498672 0.501324
v 0.500000 -0.498672 0.501324
v -0.500000 0.501324 0.498672
v 0.500000 0.501324 0.498672
v -0.500000 0.498672 -0.501324
v 0.500000 0.498672 -0.501324
vt 0.465783 0.355881
vt 0.466480 0.121001
vt 0.699864 0.121702
vt 0.699168 0.356582
vt 0.231703 0.590060
vt 0.465087 0.590761
vt 0.464391 0.825641
vt 0.231006 0.824940
vt 0.698471 0.591462
vt 0.932552 0.357283
vt 0.931856 0.592163
vt 0.232399 0.355180
vt -0.001682 0.589359
vt -0.000985 0.354479
vn 0.000000 -0.999996 0.002652
vn 0.000000 -0.999996 0.002652
vn 0.000000 -0.999996 0.002652
vn 0.000000 -0.999996 0.002652
vn 0.000000 0.002652 0.999996
vn 0.000000 0.002652 0.999996
vn 0.000000 0.002652 0.999996
vn 0.000000 0.002652 0.999996
vn 0.000000 0.999996 -0.002652
vn 0.000000 0.999996 -0.002652
vn 0.000000 0.999996 -0.002652
vn 0.000000 0.999996 -0.002652
vn 0.000000 -0.002652 -0.999996
vn 0.000000 -0.002652 -0.999996
vn 0.000000 -0.002652 -0.999996
vn 0.000000 -0.002652 -0.999996
vn 1.000000 0.000000 0.000000
vn 1.000000 0.000000 0.000000
vn 1.000000 0.000000 0.000000
vn 1.000000 0.000000 0.000000
vn -1.000000 0.000000 0.000000
vn -1.000000 0.000000 0.000000
vn -1.000000 0.000000 0.000000
vn -1.000000 0.000000 0.000000
s off
g pCube1
usemtl blinn1SG
f 1/6/1 2/1/2 4/4/3 3/9/4
f 3/9/5 4/4/6 6/10/7 5/11/8
f 5/13/9 6/14/10 8/12/11 7/5/12
f 7/5/13 8/12/14 2/1/15 1/6/16
f 2/1/17 8/2/18 6/3/19 4/4/20
f 7/5/21 1/6/22 3/7/23 5/8/24
